<svg viewBox="0 0 48 48" fill="none" xmlns="http://www.w3.org/2000/svg">
<path d="M23.564 0.364014C14.174 0.364014 6.57056 7.97594 6.57056 17.3575C6.57056 19.3049 6.90077 21.1761 7.50194 22.9204V22.9458L7.52734 22.9966C7.81522 23.8094 8.16237 24.5969 8.56033 25.3504L8.56879 25.3674L8.57726 25.3843C8.73814 25.6806 8.90748 25.977 9.08529 26.2649L9.10222 26.2903L9.11069 26.3072L20.3635 45.7985C21.7859 48.2539 25.3337 48.2539 26.7477 45.7985L38.0512 26.2479L38.102 26.1717L38.4661 25.5367C38.4831 25.5113 38.5 25.4859 38.5085 25.4605L38.5169 25.4351L38.5254 25.4182C38.9403 24.6392 39.3044 23.8264 39.6007 22.9881L39.6261 22.9373V22.9204C40.2273 21.1761 40.5575 19.3049 40.5575 17.3575C40.5575 7.97594 32.9456 0.364014 23.564 0.364014ZM23.564 24.9101C19.1019 24.9101 15.4949 21.2947 15.4949 16.841C15.4949 12.3873 19.1103 8.77184 23.564 8.77184C28.0177 8.77184 31.6332 12.3873 31.6332 16.841C31.6332 21.2947 28.0177 24.9101 23.564 24.9101Z" fill="#666666" fill-opacity="0.6"/>
</svg>
