<svg viewBox="0 0 168 168" fill="none" xmlns="http://www.w3.org/2000/svg">
<rect width="168" height="168" rx="84" fill="url(#paint0_linear_103_61)"/>
<path d="M93.5558 74.6227C92.9402 74.0073 92.2841 73.4526 91.608 72.9383L91.6068 72.9394C90.9109 72.2701 89.966 71.8579 88.9242 71.8579C86.7861 71.8579 85.053 73.5911 85.053 75.7291C85.053 76.6752 85.3929 77.5417 85.9566 78.2141C85.9567 78.2142 85.9568 78.2144 85.957 78.2145C86.2279 78.5375 86.5501 78.816 86.9118 79.0365C87.2768 79.3375 87.6351 79.6339 87.9702 79.969L88.2893 80.2882C92.3015 84.2954 91.1037 91.1994 87.0915 95.2117L69.9706 112.328C65.9585 116.335 59.4357 116.335 55.4234 112.328L55.1017 112.006C51.0893 107.994 51.0893 101.466 55.1017 97.4636L62.6656 89.9022C63.6361 89.1319 64.2591 87.943 64.2591 86.6079C64.2591 84.2857 62.3767 82.4033 60.0545 82.4033C59.1782 82.4033 58.3648 82.6716 57.6912 83.1301C57.6891 83.1257 57.6868 83.1214 57.6846 83.1168L57.6039 83.1922C57.3062 83.4063 57.037 83.6573 56.8045 83.9403L48.944 91.2956C41.5551 98.6896 41.5551 110.782 48.944 118.166L49.2631 118.485C56.652 125.869 68.7397 125.869 76.1286 118.485L93.2444 101.364C100.623 93.9758 101.249 82.3205 93.8701 74.9367L93.5558 74.6227Z" fill="white"/>
<path d="M118.228 49.5156L117.909 49.1964C110.52 41.8076 98.4322 41.8076 91.0434 49.1964L73.9275 66.3173C66.5387 73.7061 66.1318 84.376 73.5206 91.7697L73.8347 92.079C74.1702 92.4144 74.5185 92.7307 74.8741 93.0341C75.1314 93.3215 75.4338 93.5676 75.7698 93.7621C75.7724 93.7642 75.775 93.7663 75.7776 93.7684L75.7787 93.7673C76.3143 94.0754 76.935 94.2525 77.5973 94.2525C79.6158 94.2525 81.252 92.6161 81.252 90.5979C81.252 90.0282 81.1215 89.489 80.8889 89.0083C80.4057 87.9234 79.5013 87.263 78.8758 86.6374L78.5616 86.3283C74.5495 82.3162 76.0731 76.4873 80.0852 72.4752L97.2111 55.3593C101.213 51.347 107.738 51.347 111.751 55.3593L112.07 55.6733C116.082 59.6857 116.082 66.2158 112.07 70.223L104.531 77.7673C103.505 78.5271 102.84 79.746 102.84 81.1204C102.84 83.4237 104.707 85.2911 107.011 85.2911C107.813 85.2911 108.561 85.0644 109.197 84.6724C109.202 84.6805 109.206 84.6881 109.211 84.6963L109.328 84.5884C109.688 84.3472 110.008 84.0511 110.277 83.7126L118.222 76.381C125.617 68.9922 125.617 56.9043 118.228 49.5156Z" fill="white"/>
<defs>
<linearGradient id="paint0_linear_103_61" x1="36.5" y1="4.45793e-07" x2="84" y2="168" gradientUnits="userSpaceOnUse">
<stop stop-color="#FFC62A"/>
<stop offset="1" stop-color="#FFA91F"/>
</linearGradient>
</defs>
</svg>
