<svg viewBox="0 0 168 168" fill="none" xmlns="http://www.w3.org/2000/svg">
<rect width="168" height="168" rx="84" fill="url(#paint0_linear_103_56)"/>
<path d="M123.817 103.831C123.706 101.16 121.959 99.6847 119.655 99.7394C117.372 99.7936 115.866 101.295 115.652 104.025C115.494 106.031 115.629 108.059 115.586 110.075C115.477 115.137 114.381 116.306 109.321 116.406C104.447 116.502 99.5695 116.438 94.6938 116.438C83.429 116.439 72.164 116.447 60.8993 116.432C53.1414 116.421 52.4691 115.751 52.432 108.209C52.4253 106.864 52.4931 105.511 52.3695 104.176C52.1066 101.336 50.775 99.8577 48.5205 99.7301C46.0868 99.5923 44.313 101.247 44.1269 104.173C43.9568 106.853 44.0524 109.551 44.0701 112.241C44.1277 120.949 47.9856 124.856 56.6964 124.906C65.7752 124.958 74.8545 124.918 83.9336 124.92C86.6237 124.922 89.314 124.923 92.004 124.922C98.8975 124.92 105.793 125.015 112.684 124.884C118.759 124.767 123.202 121.253 123.715 115.923C124.1 111.924 123.985 107.857 123.817 103.831Z" fill="white"/>
<path d="M53.3222 77.0532C61.9899 85.7257 70.6587 94.3971 79.3274 103.069C79.6836 103.425 80.0463 103.775 80.4001 104.133C81.795 105.548 83.4223 106.345 85.3937 105.598C86.0368 105.354 86.5147 104.987 86.9234 104.57C87.1933 104.383 87.4577 104.178 87.6978 103.944C92.1544 99.6109 111.145 80.5589 115.533 76.154C116.004 75.6808 116.457 75.1722 116.828 74.6197C118.021 72.8458 117.858 71.1081 116.443 69.5559C114.996 67.9682 113.173 67.9016 111.377 68.7849C110.505 69.2137 109.787 70.0017 109.077 70.7061C106.124 73.6349 95.4428 84.3062 88.291 91.4688C88.2947 80.2813 88.2959 69.0939 88.2937 57.9063C88.2931 54.547 88.4002 51.1817 88.2337 47.8305C88.0787 44.7174 86.5678 43.1293 84.1351 43.0495C81.6398 42.9677 80.1259 44.4878 79.7857 47.5572C79.6568 48.7201 79.7248 49.9062 79.7242 51.0818C79.7202 58.4721 79.7221 65.8626 79.7221 73.253C79.722 78.7795 79.7221 84.306 79.7221 89.8325C79.3385 90.0023 78.955 90.172 78.5713 90.3418C76.3497 88.1286 74.1254 85.9176 71.9067 83.7015C67.2727 79.072 62.6988 74.3806 57.9834 69.8357C55.8544 67.7836 53.3866 67.7499 51.6914 69.363C49.8644 71.1016 49.9287 73.1716 51.9186 75.6082C52.3418 76.1263 52.8475 76.578 53.3222 77.0532Z" fill="white"/>
<defs>
<linearGradient id="paint0_linear_103_56" x1="36.5" y1="4.45793e-07" x2="84" y2="168" gradientUnits="userSpaceOnUse">
<stop stop-color="#3BA8FF"/>
<stop offset="1" stop-color="#2577FC"/>
</linearGradient>
</defs>
</svg>
