<svg  viewBox="0 0 48 48" fill="none" xmlns="http://www.w3.org/2000/svg">
<path d="M42.4615 19.8646V28.1538C42.4614 28.521 42.3155 28.8731 42.0559 29.1327C41.7962 29.3924 41.4441 29.5382 41.0769 29.5382C40.7097 29.5382 40.3576 29.3924 40.0979 29.1327C39.8382 28.8731 39.6923 28.521 39.6923 28.1538V21.2215L24 28.92L4.19627 19.2185C3.9393 18.9606 3.77054 18.628 3.71416 18.2683C3.65779 17.9087 3.71668 17.5404 3.88242 17.2163C4.05965 16.8692 4.35042 16.5886 4.70858 16.4169L23.1895 7.5683C23.4426 7.44747 23.7195 7.38477 24 7.38477C24.2804 7.38477 24.5573 7.44747 24.8104 7.5683L43.2904 16.4169C44.195 16.8498 44.5643 17.9095 44.1175 18.7837C44.0409 18.9341 43.9421 19.0717 43.8277 19.1935L42.4615 19.8646ZM36.923 24.6369V35.0769H36.8861C36.3784 38.1748 30.803 40.6154 24 40.6154C17.1969 40.6154 11.6215 38.1748 11.1138 35.0769H11.0769V24.6461L23.5938 30.7772C23.7202 30.8392 23.8592 30.8714 24 30.8714C24.1408 30.8714 24.2797 30.8392 24.4061 30.7772L36.923 24.6369Z" fill="#666666" fill-opacity="0.6"/>
</svg>
