<svg  viewBox="0 0 58 39" fill="none" xmlns="http://www.w3.org/2000/svg">
<path fill-rule="evenodd" clip-rule="evenodd" d="M0.688615 17.6542C0.228781 18.114 -0.000694948 18.717 0.000187679 19.3196C-0.0075153 19.9311 0.221899 20.5449 0.688431 21.0115L17.6542 37.9772C18.5721 38.8951 20.0603 38.8951 20.9782 37.9772C21.8961 37.0593 21.8961 35.571 20.9782 34.6531L8.35044 22.0254H54.5264C55.9071 22.0254 57.0264 20.9061 57.0264 19.5254C57.0264 18.1447 55.9071 17.0254 54.5264 17.0254H7.96545L20.9784 4.01246C21.8963 3.09456 21.8963 1.60634 20.9784 0.688429C20.0605 -0.229477 18.5722 -0.229476 17.6543 0.688431L0.688615 17.6542Z" fill="black"/>
</svg>
