<svg viewBox="0 0 32 32" fill="none" xmlns="http://www.w3.org/2000/svg">
<rect width="32" height="32" fill="#FBFBFB"/>
<rect x="2" y="5" width="24" height="17" rx="2" fill="url(#paint0_radial_2455_1328)" fill-opacity="0.3"/>
<path d="M28 12V9C28 7.89543 27.1046 7 26 7H6C4.89543 7 4 7.89543 4 9V23C4 24.1046 4.89543 25 6 25H26C27.1046 25 28 24.1046 28 23V19" stroke="#DC3434" stroke-width="2" stroke-linecap="round"/>
<rect x="12" y="11" width="2" height="5" rx="1" fill="#DC3434"/>
<rect x="18" y="11" width="2" height="5" rx="1" fill="#DC3434"/>
<path d="M21 21C19.3619 19.7494 18.2739 19 16 19C13.7261 19 12.6381 19.7494 11 21" stroke="#DC3434" stroke-width="2" stroke-linecap="round"/>
<defs>
<radialGradient id="paint0_radial_2455_1328" cx="0" cy="0" r="1" gradientUnits="userSpaceOnUse" gradientTransform="translate(14 13.5) rotate(90) scale(8.5 12)">
<stop stop-color="#DC3434"/>
<stop offset="1" stop-color="#DC3434" stop-opacity="0"/>
</radialGradient>
</defs>
</svg>
