<svg viewBox="0 0 45 53" fill="none" xmlns="http://www.w3.org/2000/svg">
<path d="M22.5 44.0374C10.5542 44.0374 0.895844 34.3791 0.895844 22.4333C0.895844 10.4874 10.5542 0.829102 22.5 0.829102C34.4458 0.829102 44.1042 10.4874 44.1042 22.4333C44.1042 34.3791 34.4458 44.0374 22.5 44.0374ZM22.5 4.38744C12.5875 4.38744 4.45418 12.5208 4.45418 22.4333C4.45418 32.3458 12.5875 40.4791 22.5 40.4791C32.4125 40.4791 40.5458 32.3458 40.5458 22.4333C40.5458 12.5208 32.4125 4.38744 22.5 4.38744ZM41.0542 51.6624L34.9542 44.2916C34.4458 43.5291 34.4458 42.5124 35.2083 42.0041L35.4625 41.7499C36.225 41.2416 37.2417 41.2416 37.75 42.0041L43.85 49.1208C44.3583 49.8833 44.3583 50.8999 43.5958 51.4083L43.3417 51.6624C42.5792 52.4249 41.5625 52.1708 41.0542 51.6624Z" fill="#4D4D4D"/>
</svg>
